<svg width="490" height="487" viewBox="0 0 490 487" fill="none" xmlns="http://www.w3.org/2000/svg">
<path d="M108.588 388.032C115.221 371.917 122.89 353.443 127.03 343.695C129.831 337.027 140.092 312.506 149.686 289.053L149.689 289.046C165.156 251.579 175.29 227.045 210.355 142.381C214.89 131.311 222.084 113.725 226.345 103.072C228.484 97.7251 230.524 92.7747 232.099 89.0715C232.886 87.2217 233.562 85.6718 234.078 84.5352C234.335 83.9689 234.56 83.4887 234.744 83.1187L234.748 83.1106C234.877 82.8507 235.115 82.3715 235.381 82.0383L235.422 81.9876L235.465 81.9391C235.876 81.4761 236.517 81.0977 237.312 81.072C238.006 81.0496 238.521 81.3078 238.78 81.4676C239.264 81.7656 239.567 82.1653 239.686 82.3254C239.989 82.7336 240.285 83.276 240.566 83.8373C241.155 85.0137 241.949 86.8379 242.974 89.3528C245.032 94.4063 248.111 102.481 252.478 114.3C261.217 137.948 275.155 176.693 296.486 236.489C298.081 240.89 299.966 246.166 301.778 251.236C303.774 256.823 305.682 262.16 307.013 265.804C311.284 277.416 323.956 312.629 349.953 385.156L349.954 385.157C357.355 405.827 362.495 418.65 368.018 428.567C373.498 438.408 379.393 445.457 388.429 454.493C393.408 459.406 396.691 462.388 400.155 464.867C403.615 467.343 407.329 469.369 413.235 472.289C423.604 477.341 430.137 480.088 437.415 481.62C444.731 483.161 452.926 483.5 466.667 483.5H487.5V453.333V423.019L474.515 422.229L474.515 422.229C463.463 421.555 454.985 420.096 447.737 417.13C440.442 414.146 434.556 409.702 428.577 403.31C419.33 393.502 416.496 386.738 398.975 336.83C379.644 282.171 343.914 182.579 301.116 64.1832C300.087 61.3472 299.106 58.6426 298.171 56.0634C288.613 29.7066 283.8 16.4354 281.199 9.64432C279.75 5.86307 279.048 4.25656 278.638 3.5275C278.607 3.47363 278.581 3.42935 278.559 3.39346C278.467 3.38141 278.355 3.36804 278.22 3.35376C277.659 3.29425 276.848 3.23236 275.795 3.17072C273.699 3.04788 270.753 2.93207 267.164 2.83237C259.991 2.63312 250.315 2.5 239.867 2.5C225.665 2.5 216.077 2.60022 209.849 2.84802C206.729 2.97217 204.511 3.13138 203.001 3.3237C202.245 3.4201 201.722 3.5181 201.379 3.60687C201.37 3.60925 201.361 3.6116 201.352 3.61392C201.291 3.71658 201.219 3.84152 201.135 3.99109C200.802 4.58734 200.357 5.44943 199.81 6.56778C198.719 8.79694 197.271 11.9363 195.568 15.7658C192.164 23.419 187.775 33.7592 183.251 44.938L183.246 44.9498C174.045 67.3529 153.243 117.756 136.976 156.958C124.9 186.059 111.502 218.539 102.672 239.944C99.6086 247.371 97.0949 253.464 95.3772 257.621C88.7119 273.751 75.513 305.882 66.0462 328.949L66.0414 328.961C56.4434 352.022 42.9786 384.685 36.0469 401.614L36.0465 401.615C25.1129 428.282 18.0446 445.353 5.38055 475.613C4.60025 477.565 3.85653 479.604 3.31175 481.287C3.1015 481.936 2.92565 482.518 2.79004 483.011C3.01271 483.046 3.26833 483.081 3.56124 483.115C6.20682 483.429 11.1892 483.658 20.476 483.817C38.9821 484.133 74.1201 484.167 140.667 484.167C179.33 484.167 214.49 484.067 239.982 483.883C252.729 483.792 263.052 483.679 270.183 483.548C273.752 483.483 276.506 483.413 278.362 483.339C278.569 483.331 278.763 483.323 278.945 483.315C279.144 477.792 279.274 464.747 279.317 452.025C279.342 444.647 279.337 437.43 279.302 431.954C279.284 429.214 279.259 426.918 279.226 425.257C279.212 424.576 279.197 424.01 279.182 423.569C279.048 423.541 278.888 423.511 278.698 423.48C276.964 423.199 273.717 422.983 267.622 422.833C255.511 422.534 232.752 422.5 189.867 422.5C164.797 422.5 141.989 422.433 125.447 422.3C117.177 422.233 110.463 422.15 105.813 422.049C103.491 421.999 101.664 421.945 100.41 421.885C99.7896 421.855 99.2714 421.822 98.8918 421.785C98.7151 421.767 98.4943 421.741 98.2868 421.699C98.2029 421.682 97.9876 421.636 97.7451 421.537C97.6357 421.492 97.3651 421.374 97.0807 421.139C96.8246 420.927 96.1667 420.286 96.1667 419.2C96.1667 418.896 96.2256 418.65 96.2344 418.614L96.2353 418.61C96.2542 418.529 96.274 418.46 96.2866 418.417C96.3129 418.329 96.3429 418.24 96.3689 418.164C96.4229 418.009 96.4959 417.81 96.5815 417.584C96.7545 417.125 97.0049 416.483 97.3206 415.685C97.9532 414.086 98.8637 411.822 99.979 409.071C102.211 403.567 105.271 396.092 108.588 388.032ZM278.841 485.405C278.843 485.385 278.844 485.365 278.846 485.345C278.842 485.378 278.84 485.412 278.838 485.446L278.841 485.405Z" stroke="url(#paint0_linear_16_2)" stroke-width="5"/>
<defs>
<linearGradient id="paint0_linear_16_2" x1="245" y1="486.667" x2="245" y2="0" gradientUnits="userSpaceOnUse">
<stop stop-color="#32BAF6"/>
<stop offset="1" stop-color="#32BAF6"/>
</linearGradient>
</defs>
</svg>
