<svg width="498" height="495" viewBox="0 0 498 495" fill="none" xmlns="http://www.w3.org/2000/svg">
<g filter="url(#filter0_d_16_4)">
<path d="M203.733 1.6C202.533 2.53333 194 21.6 184.933 44C175.733 66.4 154.933 116.8 138.667 156C122.4 195.2 103.733 240.533 97.0667 256.667C90.4 272.8 77.2 304.933 67.7333 328C58.1333 351.067 44.6667 383.733 37.7333 400.667C26.8 427.333 19.7333 444.4 7.06667 474.667C5.46667 478.667 4 483.067 4 484.267C4 486.533 11.6 486.667 144.667 486.667C222 486.667 285.333 486.267 285.333 485.6C285.867 478.8 286 424 285.6 422.267C285.067 420.133 279.6 420 193.867 420C143.733 420 102.667 419.733 102.667 419.2C102.667 418.533 125.067 364.133 133.333 344.667C136.133 338 146.4 313.467 156 290C171.467 252.533 181.6 228 216.667 143.333C221.2 132.267 228.4 114.667 232.667 104C236.933 93.3333 240.8 84.2667 241.333 83.6C242.4 82.4 255.467 117.733 298.133 237.333C301.467 246.533 306.133 259.733 308.667 266.667C312.933 278.267 325.6 313.467 351.6 386C366.4 427.333 372.4 438 390.667 456.267C400.667 466.133 404.267 468.667 416.133 474.533C436.933 484.667 443.2 486 470.667 486H494V453.333V420.667L478.667 419.733C456.8 418.4 446 414 434.4 401.6C425.6 392.267 422.933 386.133 405.333 336C386 281.333 350.267 181.733 307.467 63.3333C284.4 -0.266672 285.333 2.13333 283.6 1.06666C282.667 0.533328 264.8 -5.03659e-06 243.867 -5.03659e-06C215.467 -5.03659e-06 205.333 0.399995 203.733 1.6Z" fill="#32BAF6"/>
</g>
<defs>
<filter id="filter0_d_16_4" x="0" y="0" width="498" height="494.667" filterUnits="userSpaceOnUse" color-interpolation-filters="sRGB">
<feFlood flood-opacity="0" result="BackgroundImageFix"/>
<feColorMatrix in="SourceAlpha" type="matrix" values="0 0 0 0 0 0 0 0 0 0 0 0 0 0 0 0 0 0 127 0" result="hardAlpha"/>
<feOffset dy="4"/>
<feGaussianBlur stdDeviation="2"/>
<feComposite in2="hardAlpha" operator="out"/>
<feColorMatrix type="matrix" values="0 0 0 0 0 0 0 0 0 0 0 0 0 0 0 0 0 0 0.25 0"/>
<feBlend mode="normal" in2="BackgroundImageFix" result="effect1_dropShadow_16_4"/>
<feBlend mode="normal" in="SourceGraphic" in2="effect1_dropShadow_16_4" result="shape"/>
</filter>
</defs>
</svg>
